<svg xmlns="http://www.w3.org/2000/svg" width="610.935" height="588.535" viewBox="0 0 610.935 588.535">
  <g id="Secure_login-pana" data-name="Secure login-pana" transform="translate(-24.6 -43.459)">
    <g id="freepik--background-simple--inject-72" transform="translate(100.107 43.459)">
      <path id="Caminho_101" data-name="Caminho 101" d="M533.87,109.051l-2.854-4.692C506.957,64.693,463.448,40.787,417.572,43.7a120.7,120.7,0,0,0-17.557,2.409c-41.769,8.925-77.968,40.46-93.047,80.864-8.841,23.752-11.319,51.1-28.1,69.962-21.859,24.532-58.949,25.312-91.557,24.3s-69.74-.153-91.473,24.49C82.226,261.145,77.9,283.087,79,303.749c2.9,54.7,41.017,103.628,89.51,127.937s105.563,26.453,158.609,15.8c74.334-14.981,145.021-56.137,187.513-119.737S567.87,177.649,533.87,109.051Z" transform="translate(-78.833 -43.459)" fill="#006bde"/>
      <circle id="Elipse_2" data-name="Elipse 2" cx="52.963" cy="52.963" r="52.963" transform="translate(2.238 24.019)" fill="#006bde"/>
    </g>
    <g id="freepik--Table--inject-72" transform="translate(24.6 630.964)">
      <path id="Caminho_102" data-name="Caminho 102" d="M635.535,465.792c0,.209-136.778.362-305.454.362S24.6,466,24.6,465.792s136.75-.362,305.482-.362S635.535,465.6,635.535,465.792Z" transform="translate(-24.6 -465.43)" fill="#263238"/>
    </g>
    <g id="freepik--Character--inject-72" transform="translate(189.629 197.191)">
      <path id="Caminho_128" data-name="Caminho 128" d="M420.486,287.935l-33.457-4.845-66.927,9.9L301.32,299.63l3.328,41.072L369,352.551l43.411-12.865,16.415-24.156Z" transform="translate(-81.076 -103.187)" fill="#ffbe9d"/>
      <path id="Caminho_129" data-name="Caminho 129" d="M450.009,291.249,422,284.65s-19.784,61.261-68.64,58.574c-39.819-2.158-40.279-46.6-40.279-46.6l-28.7,9.189s-10.985,73.61,1.17,125.765c2.785,12.182,6.641,28.6,6.641,28.6l-3.884,76.2,212.24.334-50.54-245.46Z" transform="translate(-89.506 -102.575)" fill="#fff"/>
      <g id="Grupo_13" data-name="Grupo 13" transform="translate(277.3 401.152)" opacity="0.3">
        <path id="Caminho_130" data-name="Caminho 130" d="M342.3,459.863c10.331-.265,19.854.613,30.185.362,12.391-.306,24.88-.613,37.118,1.392,9.161,1.518,18.1,4.3,27.261,5.75,12.531,1.977,25.883,1.281,37.021-4.748l-1.8-10.4L429.791,442Z" transform="translate(-342.3 -442)"/>
      </g>
      <path id="Caminho_131" data-name="Caminho 131" d="M280.322,317.172c9.746-12.531,25.841-17.752,25.841-17.752l10.86,94.522L296.459,531.584l-67.359-.32S266.246,335.341,280.322,317.172Z" transform="translate(-109.407 -96.781)" fill="#fff"/>
      <path id="Caminho_132" data-name="Caminho 132" d="M403.053,288.89s45.333,3.634,61.595,77.968c7.351,33.6,16.707,72.956,19.339,99.423,1.935,19.186-8.493,49.231-27.623,51.7l-24.059,3.23a39.747,39.747,0,0,1-14.173-.515c-15.19-3.495-16.707-13.923-19.492-25.061l-6.961-22.165c-3.843-21.079,15.8-25.061,26.648-24.769l-8.089-96.221Z" transform="translate(-45.822 -100.911)" fill="#fff"/>
      <path id="Caminho_133" data-name="Caminho 133" d="M280.991,337.17a4.926,4.926,0,0,0-.209,1.03c-.111.752-.264,1.754-.459,2.993-.084.654-.195,1.392-.306,2.172s-.167,1.657-.265,2.59c-.195,1.852-.418,3.968-.515,6.321a159.829,159.829,0,0,0-.111,16.526,201.747,201.747,0,0,0,2,20.119c1.044,7.115,2.353,13.825,3.69,19.9s2.631,11.514,3.773,16.081,2.1,8.228,2.785,10.762c.334,1.211.6,2.186.808,2.91a4.911,4.911,0,0,0,.334,1,5.18,5.18,0,0,0-.195-1.03c-.167-.752-.39-1.726-.668-2.952-.627-2.631-1.5-6.307-2.59-10.818s-2.339-10.024-3.606-16.095-2.59-12.767-3.62-19.854-1.754-13.923-2.061-20.063a143.562,143.562,0,0,1,0-16.457c.07-2.353.251-4.455.4-6.321q.1-1.392.209-2.59c.084-.78.167-1.5.237-2.172.139-1.239.251-2.242.32-3.007a5.339,5.339,0,0,0,.042-1.044Z" transform="translate(-89.846 -81.972)" fill="#263238"/>
      <path id="Caminho_134" data-name="Caminho 134" d="M446.308,429.8a8.156,8.156,0,0,0-.32-1.907,30.371,30.371,0,0,0-1.754-4.887,33.317,33.317,0,0,0-26.607-19.367,29.227,29.227,0,0,0-5.193-.167,8.492,8.492,0,0,0-1.893.237,62.151,62.151,0,0,1,6.961.432,34.375,34.375,0,0,1,26.217,19.074,67.531,67.531,0,0,1,2.59,6.586Z" transform="translate(-38.23 -55.98)" fill="#263238"/>
      <path id="Caminho_135" data-name="Caminho 135" d="M435.776,395.82a3.5,3.5,0,0,0-1.1-.1,23.1,23.1,0,0,0-2.993.139,34.346,34.346,0,0,0-9.565,2.395,35.155,35.155,0,0,0-8.493,5.026,24.184,24.184,0,0,0-2.214,2c-.487.515-.738.807-.71.849s1.225-.975,3.244-2.45a39.973,39.973,0,0,1,17.807-7.323C434.216,396,435.776,395.945,435.776,395.82Z" transform="translate(-38.168 -59.006)" fill="#263238"/>
      <path id="Caminho_136" data-name="Caminho 136" d="M395.057,340.2a10.29,10.29,0,0,0,.111-1.991c0-1.281.083-3.119.237-5.388a86.515,86.515,0,0,1,9.551-34c1.044-2.019,1.949-3.634,2.6-4.72a10.274,10.274,0,0,0,.933-1.754,10.5,10.5,0,0,0-1.183,1.6,54.037,54.037,0,0,0-2.785,4.636,78.413,78.413,0,0,0-9.607,34.222c-.084,2.283-.084,4.177,0,5.416A9.6,9.6,0,0,0,395.057,340.2Z" transform="translate(-44.383 -99.554)" fill="#263238"/>
      <path id="Caminho_137" data-name="Caminho 137" d="M332.64,375.15a3.02,3.02,0,0,0,.195.78c.167.5.376,1.267.752,2.186a45.36,45.36,0,0,0,3.773,7.644,49.134,49.134,0,0,0,48.131,23.112,46.906,46.906,0,0,0,8.354-1.824c.961-.292,1.685-.613,2.172-.794a4.178,4.178,0,0,0,.738-.32c0-.07-1.072.292-2.993.835a50.464,50.464,0,0,1-55.984-21.274,52.784,52.784,0,0,1-3.954-7.477A18.822,18.822,0,0,0,332.64,375.15Z" transform="translate(-68.789 -67.073)" fill="#263238"/>
      <path id="Caminho_138" data-name="Caminho 138" d="M401.26,455.315c.07-.07.78.947,2.478,2.339a22.763,22.763,0,0,0,8.354,3.954,43.9,43.9,0,0,0,13.644,1.211c5.179-.376,10.9-.988,16.833-1.866A86.324,86.324,0,0,0,459,457.167a20.882,20.882,0,0,0,6.029-4.024,31.3,31.3,0,0,0,4.177-4.8,45.4,45.4,0,0,0,4.636-8.034c.432-1.016.766-1.8.975-2.339a3.174,3.174,0,0,1,.362-.807,5.72,5.72,0,0,1-.223.849c-.167.571-.459,1.392-.863,2.409a40.685,40.685,0,0,1-4.469,8.228,31.107,31.107,0,0,1-4.177,4.929,21.051,21.051,0,0,1-6.182,4.177,81.879,81.879,0,0,1-16.568,3.884c-5.973.891-11.681,1.476-16.9,1.824a43.856,43.856,0,0,1-13.825-1.392,22.277,22.277,0,0,1-8.354-4.177,13.341,13.341,0,0,1-1.768-1.852A3.652,3.652,0,0,1,401.26,455.315Z" transform="translate(-41.871 -42.747)" fill="#263238"/>
      <path id="Caminho_139" data-name="Caminho 139" d="M395.892,343.72c.181,0,4.971,18.5,10.665,41.448s10.164,41.574,9.969,41.629-4.97-18.517-10.665-41.462S395.7,343.762,395.892,343.72Z" transform="translate(-43.979 -79.402)" fill="#263238"/>
      <path id="Caminho_140" data-name="Caminho 140" d="M391.845,425.1a5.68,5.68,0,0,1-.237-1.532,27.277,27.277,0,0,1-.1-4.177,12.378,12.378,0,0,1,2.047-5.945,17.683,17.683,0,0,1,2.325-2.924,16.384,16.384,0,0,1,3.216-2.395,40.766,40.766,0,0,1,13.2-4.26,37.085,37.085,0,0,1,4.177-.362,5.263,5.263,0,0,1,1.545,0c0,.111-2.186.195-5.653.821a43.967,43.967,0,0,0-12.92,4.372,16.146,16.146,0,0,0-3.091,2.283,17.486,17.486,0,0,0-2.255,2.785,11.988,11.988,0,0,0-2.088,5.569,35.614,35.614,0,0,0-.125,4.177,6.863,6.863,0,0,1-.042,1.587Z" transform="translate(-45.71 -55.971)" fill="#263238"/>
      <g id="Grupo_14" data-name="Grupo 14" transform="translate(184.23 252.177)" opacity="0.3">
        <path id="Caminho_141" data-name="Caminho 141" d="M284.457,400.437c-11.57-19.589-11.82-45.04-1.726-65.437a183.447,183.447,0,0,0,2.061,65.354" transform="translate(-275.453 -335)"/>
      </g>
      <path id="Caminho_142" data-name="Caminho 142" d="M325.89,417.08h.084Z" transform="translate(-71.437 -50.624)" fill="#ffbe9d"/>
      <path id="Caminho_143" data-name="Caminho 143" d="M326.25,417.25l.181.083Z" transform="translate(-71.296 -50.558)" fill="#ffbe9d"/>
      <path id="Caminho_144" data-name="Caminho 144" d="M326,417.11l.418.195Z" transform="translate(-71.394 -50.612)" fill="#ffbe9d"/>
      <path id="Caminho_145" data-name="Caminho 145" d="M325.76,417l.181.083Z" transform="translate(-71.488 -50.656)" fill="#ffbe9d"/>
      <path id="Caminho_146" data-name="Caminho 146" d="M295.695,457.165c3.648-6.878,32.092-25.061,32.092-25.061l-7.7-1.782-8.507,3.592a20.885,20.885,0,0,1-3.662,7.964c-3.119,4.455-8.423-.153-8.423-.153l3.592-17.223,16.819-10.122s15.816,2.423,18.378,3.648l6.739,6.168c2.966,2.325,11.514,11.472,13.853,11.751s75.81-16.22,75.81-16.22h0c10.066,7.978,15.315,23.808,16.958,35.239,0,0,1.8,5.569-.153,8.66L361.369,470.7l-19.1,5.277a135.244,135.244,0,0,1-15.691,5.388c-6.349,1.392-10.623-.71-10.8-4.177s4.762-3.9,4.762-3.9a96.065,96.065,0,0,0,12.28-5.4,21.539,21.539,0,0,0,6.961-7.6l-6.808.808s-14.48,10.052-19.924,13-6.516-2.464-6.961-4.177,16.262-17.974,16.262-17.974S306.457,461.69,303.6,464.2s-7.087,3.216-7.992,1.559S292.061,464.043,295.695,457.165Z" transform="translate(-84.013 -51.683)" fill="#ffbe9d"/>
      <path id="Caminho_147" data-name="Caminho 147" d="M326.38,417.31l.153.084Z" transform="translate(-71.245 -50.534)" fill="#ffbe9d"/>
      <path id="Caminho_148" data-name="Caminho 148" d="M326.56,417.4Z" transform="translate(-71.175 -50.499)" fill="#ffbe9d"/>
      <path id="Caminho_149" data-name="Caminho 149" d="M326.49,417.37h.1Z" transform="translate(-71.202 -50.51)" fill="#ffbe9d"/>
      <path id="Caminho_150" data-name="Caminho 150" d="M355.7,452.668a3.912,3.912,0,0,0,.083-1.114,6.517,6.517,0,0,0-.083-1.309,9.847,9.847,0,0,0-.32-1.712,24.45,24.45,0,0,0-4.608-8.9,51.526,51.526,0,0,0-6.961-7.212,20.012,20.012,0,0,0-3.272-2.534,35.1,35.1,0,0,0,2.952,2.882,66.335,66.335,0,0,1,6.739,7.282,26.19,26.19,0,0,1,4.678,8.6C355.632,451.081,355.563,452.682,355.7,452.668Z" transform="translate(-65.69 -45.599)" fill="#eb996e"/>
      <path id="Caminho_151" data-name="Caminho 151" d="M318.69,427.595a10.442,10.442,0,0,0,8.98-3.021c-.111-.153-1.852,1.142-4.344,1.949S318.69,427.4,318.69,427.595Z" transform="translate(-74.262 -47.689)" fill="#eb996e"/>
      <path id="Caminho_152" data-name="Caminho 152" d="M315.29,441.928a89.554,89.554,0,0,0,14.229-5.848,43.484,43.484,0,0,0-7.24,2.617,45.4,45.4,0,0,0-6.989,3.23Z" transform="translate(-75.596 -43.171)" fill="#eb996e"/>
      <path id="Caminho_153" data-name="Caminho 153" d="M326.25,448.008a16.7,16.7,0,0,0,3.7-1.323,16.375,16.375,0,0,0,3.62-1.545,14.647,14.647,0,0,0-7.323,2.868Z" transform="translate(-71.296 -39.617)" fill="#eb996e"/>
      <path id="Caminho_154" data-name="Caminho 154" d="M317,441.189a15.764,15.764,0,0,1,2.785,2.45,15.438,15.438,0,0,1,1.615,3.369c.084,0,.167-.459,0-1.183a6.028,6.028,0,0,0-1.142-2.59,5.959,5.959,0,0,0-2.186-1.782C317.446,441.147,317,441.119,317,441.189Z" transform="translate(-74.925 -41.179)" fill="#eb996e"/>
      <path id="Caminho_155" data-name="Caminho 155" d="M312.182,433.64c-.1.167,1.156.849,1.977,2.283a18.107,18.107,0,0,1,1.016,2.854,3.383,3.383,0,0,0-.46-3.23C313.783,433.933,312.209,433.459,312.182,433.64Z" transform="translate(-76.817 -44.142)" fill="#eb996e"/>
      <path id="Caminho_156" data-name="Caminho 156" d="M314.235,421.872c.084,0,.334-.278.543-.9a4.943,4.943,0,0,0,0-2.506,4.846,4.846,0,0,0-1.2-2.2c-.459-.459-.835-.627-.891-.557a13.14,13.14,0,0,1,1.392,2.924,12,12,0,0,1,.153,3.244Z" transform="translate(-76.616 -51.17)" fill="#eb996e"/>
      <path id="Caminho_157" data-name="Caminho 157" d="M412.818,464.985a12.938,12.938,0,0,1-.111-2.074,22.593,22.593,0,0,0-.1-2.423c-.1-.947-.084-2.019-.223-3.188a71.44,71.44,0,0,0-3.94-18.1,64.865,64.865,0,0,0-4.26-9.245c-.835-1.392-1.559-2.631-2.395-3.759-.39-.571-.78-1.114-1.156-1.643a12.265,12.265,0,0,0-1.156-1.392c-2.993-3.69-5.291-5.569-5.179-5.681a9.509,9.509,0,0,1,1.615,1.295,20.628,20.628,0,0,1,1.782,1.685c.654.682,1.392,1.392,2.186,2.367.376.473.78.947,1.2,1.392a18.655,18.655,0,0,1,1.211,1.643c.863,1.128,1.615,2.436,2.464,3.773a60.476,60.476,0,0,1,4.372,9.328A66.3,66.3,0,0,1,412.9,457.23c.1,1.183.083,2.269.111,3.216s0,1.768,0,2.437A10.387,10.387,0,0,1,412.818,464.985Z" transform="translate(-44.602 -50.467)" fill="#263238"/>
      <g id="Grupo_15" data-name="Grupo 15" transform="translate(372.435 346.696)" opacity="0.3">
        <path id="Caminho_158" data-name="Caminho 158" d="M437.334,406.316a45.278,45.278,0,0,0-26.7-2.436h0a36.937,36.937,0,0,1,36.046,23.307c.64,1.726,1.921,3.773,3.759,3.509s2.339-2.395,2.339-4.107C452.788,417.579,445.646,409.783,437.334,406.316Z" transform="translate(-410.63 -402.888)"/>
      </g>
      <path id="Caminho_159" data-name="Caminho 159" d="M287.235,337.918a4.376,4.376,0,0,1-1.2-.4c-.766-.292-1.838-.78-3.147-1.392a65.908,65.908,0,0,1-9.746-5.973,66.827,66.827,0,0,1-8.549-7.518c-1-1.058-1.8-1.949-2.3-2.576s-.78-1-.738-1.044,1.309,1.253,3.4,3.258a88.446,88.446,0,0,0,8.618,7.31,86.932,86.932,0,0,0,9.509,6.084C285.7,337.1,287.318,337.82,287.235,337.918Z" transform="translate(-96.674 -89.096)" fill="#fff"/>
      <path id="Caminho_160" data-name="Caminho 160" d="M440.63,336.361a1.555,1.555,0,0,1-.348.237l-1.072.64c-.933.571-2.353,1.392-4.177,2.311a116.945,116.945,0,0,1-16.22,6.836,156.141,156.141,0,0,1-25.381,6.1,246.325,246.325,0,0,1-31.856,2.645c-11.347.265-22.151,0-32.023-.167A213.343,213.343,0,0,1,303.518,353a101.024,101.024,0,0,1-17.153-3.982c-1.963-.668-3.481-1.225-4.483-1.657l-1.142-.487a2.045,2.045,0,0,1-.39-.181l.418.111,1.169.418c1.016.39,2.548.9,4.525,1.532a110.157,110.157,0,0,0,17.125,3.745,224.143,224.143,0,0,0,25.98,1.8c9.746.181,20.606.376,31.925.111a250.193,250.193,0,0,0,31.772-2.59A158.823,158.823,0,0,0,418.59,345.9a126.029,126.029,0,0,0,16.262-6.6c1.852-.919,3.286-1.657,4.177-2.186l1.1-.571A2.638,2.638,0,0,1,440.63,336.361Z" transform="translate(-89.302 -82.29)" fill="#fff"/>
      <path id="Caminho_161" data-name="Caminho 161" d="M292.474,375.617a7.686,7.686,0,0,1-1.726-.362l-4.636-1.267c-3.9-1.1-9.273-2.673-15.2-4.441s-11.278-3.425-15.148-4.65l-4.567-1.476a9.587,9.587,0,0,1-1.643-.64,7.683,7.683,0,0,1,1.727.362l4.636,1.267c3.9,1.1,9.273,2.673,15.2,4.441s11.278,3.411,15.148,4.636l4.567,1.49a8.356,8.356,0,0,1,1.643.64Z" transform="translate(-101.385 -71.925)" fill="#fff"/>
      <path id="Caminho_162" data-name="Caminho 162" d="M300.727,432.489c0,.181-13.923-3.8-31.048-8.911s-30.895-9.412-30.839-9.607,13.923,3.787,31.048,8.911S300.783,432.294,300.727,432.489Z" transform="translate(-105.586 -51.846)" fill="#fff"/>
      <path id="Caminho_163" data-name="Caminho 163" d="M440.3,307.69a9.633,9.633,0,0,1-1.531,1.211c-1,.738-2.506,1.768-4.386,2.993a149.421,149.421,0,0,1-31.424,15.44c-2.116.738-3.843,1.295-5.054,1.643a9.386,9.386,0,0,1-1.893.473,10.761,10.761,0,0,1,1.81-.738l4.97-1.852c4.177-1.6,9.9-3.968,16.025-6.961s11.5-6.084,15.315-8.423l4.511-2.785A9.867,9.867,0,0,1,440.3,307.69Z" transform="translate(-43.93 -93.536)" fill="#fff"/>
      <path id="Caminho_164" data-name="Caminho 164" d="M465.169,364.51a17.227,17.227,0,0,1-2.255,1.072c-1.462.654-3.634,1.518-6.335,2.506a147.124,147.124,0,0,1-43.955,8.744c-2.882.125-5.207.153-6.822.1a18.7,18.7,0,0,1-2.492-.111,14.988,14.988,0,0,1,2.492-.167c1.6,0,3.926-.139,6.794-.334a170.724,170.724,0,0,0,22.207-2.882,173.256,173.256,0,0,0,21.622-5.82c2.715-.933,4.9-1.726,6.4-2.3a14.48,14.48,0,0,1,2.339-.808Z" transform="translate(-41.067 -71.247)" fill="#fff"/>
      <path id="Caminho_165" data-name="Caminho 165" d="M423.9,475.589a3,3,0,0,1,.07-.78c.084-.571.209-1.295.348-2.186s.348-2.116.487-3.481.376-2.9.432-4.622c0-.849.111-1.754.167-2.687s0-1.921,0-2.924c0-2.019-.084-4.177-.195-6.446a94.534,94.534,0,0,0-2.242-14.591,95.62,95.62,0,0,0-4.636-14.02c-.947-2.061-1.8-4.052-2.785-5.82-.473-.891-.9-1.768-1.392-2.59l-1.392-2.311c-.849-1.5-1.768-2.785-2.506-3.912a34.779,34.779,0,0,0-2.019-2.868l-1.309-1.8a2.9,2.9,0,0,1-.418-.654,4.17,4.17,0,0,1,.529.557l1.392,1.726a33.4,33.4,0,0,1,2.13,2.785c.78,1.128,1.726,2.381,2.6,3.87l1.392,2.311c.487.807.933,1.7,1.392,2.59a59.92,59.92,0,0,1,2.785,5.834,84.066,84.066,0,0,1,6.961,28.834c.084,2.283.209,4.455.125,6.488,0,1.016,0,2-.084,2.952s-.139,1.838-.209,2.7c-.1,1.74-.376,3.272-.557,4.636s-.39,2.534-.6,3.467-.362,1.6-.487,2.186a3.468,3.468,0,0,1,.014.752Z" transform="translate(-39.811 -55.795)" fill="#fff"/>
      <path id="Caminho_166" data-name="Caminho 166" d="M475.708,433.865c-.07,0-.111-1.142-.432-3.147a27.052,27.052,0,0,0-2.785-8.1,34.139,34.139,0,0,0-7.866-9.913,40.849,40.849,0,0,0-13.38-7.825,52.141,52.141,0,0,0-15.329-2.673,97.139,97.139,0,0,0-12.781.487c-3.634.334-6.572.71-8.6.933l-2.339.251a3.05,3.05,0,0,1-.821,0,3.147,3.147,0,0,1,.794-.181l2.325-.39c2.019-.32,4.957-.752,8.59-1.17a93.485,93.485,0,0,1,12.865-.64,52.25,52.25,0,0,1,15.538,2.687,41.183,41.183,0,0,1,13.589,8.02,33.847,33.847,0,0,1,7.88,10.178,25.6,25.6,0,0,1,2.548,8.354,17.4,17.4,0,0,1,.167,2.367A3.422,3.422,0,0,1,475.708,433.865Z" transform="translate(-37.905 -56.745)" fill="#fff"/>
      <path id="Caminho_167" data-name="Caminho 167" d="M372,395.79a3.273,3.273,0,0,1-.794.139l-2.269.237-8.354.7c-7.059.543-16.819,1.211-27.6,1.768s-20.564.9-27.651.989H294.714a2.911,2.911,0,0,1-.794-.083,3.464,3.464,0,0,1,.794-.07h2.269l8.354-.209c7.059-.209,16.833-.627,27.609-1.2l27.6-1.559,8.354-.473,2.283-.1a3.179,3.179,0,0,1,.821-.139Z" transform="translate(-83.979 -58.976)" fill="#fff"/>
      <g id="Grupo_16" data-name="Grupo 16" transform="translate(272.399 323.671)" opacity="0.3">
        <path id="Caminho_168" data-name="Caminho 168" d="M362.491,402.389c8.771,2.576,20.884,3.2,29.475,0-6.683,9.509-19.589,12.948-30.8,9.857s-21.525-14.3-22.388-25.9C344.21,393.66,353.719,399.786,362.491,402.389Z" transform="translate(-338.78 -386.35)"/>
      </g>
      <path id="Caminho_169" data-name="Caminho 169" d="M426.769,391.281a4.381,4.381,0,0,1-.71.195l-2.019.432c-1.768.362-4.316.835-7.491,1.392-6.335,1.114-15.12,2.478-24.852,3.676s-18.6,1.977-25.061,2.423c-3.2.223-5.806.376-7.6.446l-2.061.07a2.241,2.241,0,0,1-.724,0,3.735,3.735,0,0,1,.71-.111l2.061-.209,7.574-.682c6.4-.571,15.232-1.392,24.978-2.631s18.5-2.478,24.852-3.453l7.518-1.169,2.061-.292a2.2,2.2,0,0,1,.766-.083Z" transform="translate(-59.528 -60.747)" fill="#fff"/>
      <g id="Grupo_17" data-name="Grupo 17" transform="translate(352.232 268.55)" opacity="0.3">
        <path id="Caminho_170" data-name="Caminho 170" d="M396.538,346.76c-2.2,25.2,4.664,50.206,11.472,74.571a10.359,10.359,0,0,0,1.866,4.177,3.62,3.62,0,0,0,4.177,1.156c2.13-1.086,1.838-4.177,1.239-6.46l-18.921-72.4" transform="translate(-396.119 -346.76)"/>
      </g>
      <path id="Caminho_171" data-name="Caminho 171" d="M143.251,366.622,171.863,507.1H420.246a4.957,4.957,0,0,0,4.957-4.957h0a4.957,4.957,0,0,0-4.957-4.956H370.236L343.712,366.539a5.43,5.43,0,0,0-5.263-4.344L148.625,360.12a5.416,5.416,0,0,0-5.374,6.5Z" transform="translate(-143.127 -72.969)" fill="#e0e0e0"/>
      <path id="Caminho_172" data-name="Caminho 172" d="M143.255,366.645a3.337,3.337,0,0,1-.084-.418,5.137,5.137,0,0,1,0-1.281,5.569,5.569,0,0,1,2.631-4.107,5.387,5.387,0,0,1,1.643-.641,8.161,8.161,0,0,1,1.949-.125h4.469l11.138.1,71.772.682,50.039.5,28.041.292,14.7.153,7.5.07h1.921a5.458,5.458,0,0,1,1.921.557,5.681,5.681,0,0,1,2.785,2.854,8.828,8.828,0,0,1,.515,1.907l.39,1.893c.251,1.253.515,2.52.766,3.787.529,2.548,1.044,5.11,1.573,7.672l3.174,15.635q3.216,15.8,6.572,32.343c4.483,22.026,9.147,44.929,13.923,68.542l-.334-.278h49.176a9.238,9.238,0,0,1,1.935.111,5.374,5.374,0,0,1,3.23,2.311,5.319,5.319,0,0,1-1.838,7.685,5.235,5.235,0,0,1-2.339.627H171.657v-.209c-8.757-43.161-15.872-78.3-20.8-102.639-2.437-12.169-4.344-21.636-5.639-28.069-.64-3.216-1.128-5.667-1.392-7.323s-.459-2.506-.459-2.506.195.849.543,2.492l1.532,7.3c1.323,6.432,3.272,15.9,5.778,28.041L172.242,507.21l-.265-.223H420.529a4.762,4.762,0,0,0,2.033-.543,4.636,4.636,0,0,0,1.587-6.7,4.539,4.539,0,0,0-2.785-1.879,9.351,9.351,0,0,0-1.8-.111H369.961v-.265q-7.184-35.5-13.923-68.556-3.355-16.512-6.558-32.343l-3.258-15.844c-.515-2.576-1.03-5.124-1.545-7.672-.265-1.267-.515-2.534-.78-3.8l-.376-1.88a7.907,7.907,0,0,0-.487-1.8,5.082,5.082,0,0,0-2.381-2.562,5.181,5.181,0,0,0-1.713-.5h-1.866l-7.518-.083-14.7-.167-28.027-.334-50.039-.585-71.772-.877-11.138-.153-4.469-.07a8.628,8.628,0,0,0-1.921.1,5.653,5.653,0,0,0-1.6.627,5.416,5.416,0,0,0-2.631,4.01A6.475,6.475,0,0,0,143.255,366.645Z" transform="translate(-143.131 -72.992)" fill="#263238"/>
      <path id="Caminho_173" data-name="Caminho 173" d="M230.041,413.311a8.2,8.2,0,1,1-8.2-8.2,8.2,8.2,0,0,1,8.2,8.2Z" transform="translate(-115.472 -55.32)" fill="#fff"/>
      <path id="Caminho_174" data-name="Caminho 174" d="M143.38,365.61h13.032l35.517.167,117.161.821,16.944.139h4.177a10.162,10.162,0,0,1,2.13.125,5.738,5.738,0,0,1,2,.807,5.834,5.834,0,0,1,2.52,3.425c.32,1.392.543,2.673.821,4.01,2.1,10.581,4.177,20.787,6.056,30.505,3.843,19.492,7.31,36.965,10.205,51.682l6.836,34.807c.78,4.107,1.392,7.3,1.824,9.481.195,1.072.348,1.893.459,2.478a7.334,7.334,0,0,1,.125.835s-.083-.279-.195-.821-.306-1.392-.529-2.464c-.446-2.186-1.1-5.36-1.949-9.454-1.671-8.242-4.065-20.132-7.045-34.807l-10.359-51.654q-2.9-14.619-6.084-30.505c-.278-1.309-.529-2.673-.807-3.954a5.221,5.221,0,0,0-2.242-3.021,5.124,5.124,0,0,0-1.782-.668,9.3,9.3,0,0,0-1.991-.111h-4.177l-16.944-.125-117.175-1.03-35.5-.39-9.662-.139h-2.506Z" transform="translate(-143.034 -70.815)" fill="#263238"/>
      <path id="Caminho_175" data-name="Caminho 175" d="M393.6,212.37A92.03,92.03,0,0,1,364.249,281.8q-6.586-19-13.129-38.009" transform="translate(-61.54 -130.929)" fill="#263238"/>
      <path id="Caminho_176" data-name="Caminho 176" d="M316.549,159.715c11.264-6.154,24.866-7.045,37.453-4.525s24.309,8.214,35.42,14.647c6.237,3.606,12.447,7.574,16.93,13.2,8.173,10.289,16.262,27.191,17.042,40.376.64,10.609-3.425,37.16-7.908,46.795-4.107,8.841-23.363,15.58-32.872,17.766L295.4,186.475a44.191,44.191,0,0,1,21.149-26.76Z" transform="translate(-83.398 -153.876)" fill="#263238"/>
      <path id="Caminho_177" data-name="Caminho 177" d="M306.795,168.941l20.884-3.731c-11.431,27.219-14.535,89.454-21.065,118.247-7.713-11.138-25.6-45.249-24.643-58.8S282.026,166.644,306.795,168.941Z" transform="translate(-88.681 -149.429)" fill="#263238"/>
      <path id="Caminho_178" data-name="Caminho 178" d="M402.713,213.191c-1.128-15.9-11.431-28.932-26.871-32.872l-48.159-12.28c-20.8-2.242-34.7,23.349-36.06,44.233-1.518,23.209-2.45,47.686.265,65.006,5.444,34.807,32.12,39.318,32.12,39.318v26.732l16.109,66.7L392.034,338.3l10.748-124.665C402.825,213.024,402.713,213.984,402.713,213.191Z" transform="translate(-85.455 -148.374)" fill="#ffbe9d"/>
      <path id="Caminho_179" data-name="Caminho 179" d="M298.72,219.8a4.469,4.469,0,0,0,4.3,4.511,4.274,4.274,0,0,0,4.609-4.024,4.469,4.469,0,0,0-4.288-4.511,4.274,4.274,0,0,0-4.622,4.024Z" transform="translate(-82.096 -129.6)" fill="#263238"/>
      <path id="Caminho_180" data-name="Caminho 180" d="M295.026,210.878c.557.585,3.94-1.907,8.744-1.894s8.354,2.436,8.841,1.852c.265-.265-.306-1.309-1.838-2.436a12.28,12.28,0,0,0-7.073-2.2,11.862,11.862,0,0,0-6.961,2.228C295.207,209.569,294.706,210.614,295.026,210.878Z" transform="translate(-83.581 -133.35)" fill="#263238"/>
      <path id="Caminho_181" data-name="Caminho 181" d="M328.8,219.8a4.469,4.469,0,0,0,4.3,4.511,4.26,4.26,0,0,0,4.608-4.038,4.469,4.469,0,0,0-4.288-4.511A4.274,4.274,0,0,0,328.8,219.8Z" transform="translate(-70.296 -129.604)" fill="#263238"/>
      <path id="Caminho_182" data-name="Caminho 182" d="M327.749,210.878c.557.585,3.954-1.907,8.757-1.894s8.354,2.436,8.841,1.852c.251-.265-.306-1.309-1.838-2.436a12.363,12.363,0,0,0-7.031-2.2,11.932,11.932,0,0,0-6.962,2.228C327.986,209.569,327.484,210.614,327.749,210.878Z" transform="translate(-70.735 -133.35)" fill="#263238"/>
      <path id="Caminho_183" data-name="Caminho 183" d="M320.431,247.927c0-.265-2.966-.794-7.811-1.392-1.225-.125-2.381-.376-2.59-1.211a6.2,6.2,0,0,1,.835-3.634q1.74-4.441,3.648-9.342c5.068-13.282,8.73-24.212,8.2-24.407s-5.082,10.4-10.15,23.669q-1.838,4.9-3.495,9.384a7.129,7.129,0,0,0-.654,4.817,3.063,3.063,0,0,0,2.019,1.8,7.49,7.49,0,0,0,2.074.292C317.312,248.178,320.333,248.206,320.431,247.927Z" transform="translate(-78.356 -132.668)" fill="#263238"/>
      <path id="Caminho_184" data-name="Caminho 184" d="M360.648,265.79s-11.333,23.961-46.168,20.578v-8.187a87.714,87.714,0,0,0,46.168-12.391Z" transform="translate(-75.913 -109.973)" fill="#eb996e"/>
      <path id="Caminho_185" data-name="Caminho 185" d="M328.827,198.082c.473,1.309,5.263.7,10.9,1.392s10.192,2.242,10.943,1.072c.334-.571-.459-1.8-2.3-3.063a18.1,18.1,0,0,0-8.1-2.785,18.42,18.42,0,0,0-8.535.975C329.663,196.439,328.619,197.455,328.827,198.082Z" transform="translate(-70.295 -137.915)" fill="#263238"/>
      <path id="Caminho_186" data-name="Caminho 186" d="M296.125,200.394c.835,1.1,4.177,0,8.131-.07s7.351.752,8.131-.39c.334-.557-.195-1.643-1.657-2.687a11.807,11.807,0,0,0-13.1.376C296.209,198.737,295.749,199.865,296.125,200.394Z" transform="translate(-83.163 -137.568)" fill="#263238"/>
      <path id="Caminho_187" data-name="Caminho 187" d="M298.185,184.255c2.13-5.235,7.88-8.354,13.519-8.66s11.138,1.852,16.067,4.678c20.731,11.988,31.4,40.933,51.877,53.338,5.04,3.049,11.6.251,15.886,4.288s7.059,10.5,4.692,15.886a48.84,48.84,0,0,0,7.115-12.015c1.559-4.414,1.754-9.523-.585-13.575-1.768-3.077-4.9-5.416-5.75-8.855-.766-3.035.432-6.2.306-9.314a20.424,20.424,0,0,0-3.188-8.883c-8.033-14.187-19.074-27.024-33.29-35.016a58.992,58.992,0,0,0-30.561-7.894,45.082,45.082,0,0,0-29.127,11.542c-4.581,4.274-9.4,8.688-6.961,14.48" transform="translate(-82.563 -152.17)" fill="#263238"/>
      <path id="Caminho_188" data-name="Caminho 188" d="M367.56,219.077c.362-1,18.531-7.546,18.768,11.751.237,18.754-18.684,15.065-18.726,14.522S367.56,219.077,367.56,219.077Z" transform="translate(-55.091 -129.032)" fill="#ffbe9d"/>
      <path id="Caminho_189" data-name="Caminho 189" d="M371.706,236.479c.083,0,.32.223.877.473a3.314,3.314,0,0,0,2.45,0c1.963-.738,3.606-3.912,3.662-7.282a10.762,10.762,0,0,0-.947-4.678,3.8,3.8,0,0,0-2.492-2.478,1.643,1.643,0,0,0-1.907.9c-.251.529-.125.9-.237.933s-.4-.306-.251-1.086a2.089,2.089,0,0,1,.724-1.169,2.423,2.423,0,0,1,1.8-.5,4.567,4.567,0,0,1,3.439,2.882A10.915,10.915,0,0,1,380,229.684c-.083,3.787-1.977,7.337-4.692,8.145a3.481,3.481,0,0,1-2.979-.459C371.733,236.938,371.636,236.52,371.706,236.479Z" transform="translate(-53.472 -127.317)" fill="#eb996e"/>
      <path id="Caminho_190" data-name="Caminho 190" d="M401.353,229.423a7.435,7.435,0,0,1-1.128-.627c-.724-.459-1.838-1.072-3.147-2a64.169,64.169,0,0,1-10.136-9.217,181.652,181.652,0,0,1-12.377-16.081A146.771,146.771,0,0,0,359.1,182.225a58.713,58.713,0,0,0-10-7.894,49.191,49.191,0,0,0-10.776-4.9,53.436,53.436,0,0,0-19.868-2.437,51.417,51.417,0,0,0-13.31,2.6c-1.545.473-2.687.989-3.481,1.295a7.14,7.14,0,0,1-1.225.432,9.021,9.021,0,0,1,1.156-.585,30.14,30.14,0,0,1,3.439-1.392,47.979,47.979,0,0,1,13.38-2.9,53.171,53.171,0,0,1,20.146,2.228,49.12,49.12,0,0,1,10.985,4.929,59.872,59.872,0,0,1,10.15,8.006,143.68,143.68,0,0,1,15.51,19.492,193.883,193.883,0,0,0,12.2,16.137,70.034,70.034,0,0,0,9.871,9.356c1.281.961,2.353,1.615,3.035,2.116a7.65,7.65,0,0,1,1.044.71Z" transform="translate(-81.421 -149.013)" fill="#455a64"/>
      <path id="Caminho_191" data-name="Caminho 191" d="M374.081,234.677a3.689,3.689,0,1,1-.877.278" transform="translate(-53.718 -122.202)" fill="#fff"/>
      <path id="Caminho_192" data-name="Caminho 192" d="M373.28,234.986a5.082,5.082,0,0,0-1.685,2.52,3.174,3.174,0,0,0,.724,2.938,3.286,3.286,0,0,0,5.778-1.824,3.188,3.188,0,0,0-1.114-2.785,5,5,0,0,0-2.785-1.086,1.69,1.69,0,0,1,.877-.209,3.828,3.828,0,0,1,2.339.821,3.759,3.759,0,0,1,1.5,3.383,4.024,4.024,0,0,1-7.142,2.269,3.759,3.759,0,0,1-.724-3.62,3.7,3.7,0,0,1,1.392-2.019C372.932,235,373.266,234.944,373.28,234.986Z" transform="translate(-53.794 -122.232)" fill="#263238"/>
      <path id="Caminho_193" data-name="Caminho 193" d="M376.415,222.944c.292,5.124.529,10.526-1.838,15.078s-8.354,7.658-12.781,5.11c-3.634-2.075-4.72-6.739-5.346-10.874-1.768-11.946-2.59-24.017-4.469-35.949Z" transform="translate(-61.203 -137.229)" fill="#263238"/>
      <path id="Caminho_194" data-name="Caminho 194" d="M301.32,170.768c0,.1,1.657-.32,4.65-.418a32.412,32.412,0,0,1,12.419,2.269,40.945,40.945,0,0,1,7.769,4.01,82.522,82.522,0,0,1,8.02,6.126,95.734,95.734,0,0,1,15.7,16.93c2.381,3.341,4.5,6.78,6.78,9.969a48.607,48.607,0,0,0,7.518,8.451,84.078,84.078,0,0,0,15.844,10.6c4.8,2.534,8.813,4.316,11.584,5.569l3.2,1.392a5.662,5.662,0,0,0,1.156.418,5.377,5.377,0,0,0-1.058-.6l-3.133-1.545c-2.785-1.392-6.669-3.23-11.389-5.834a86.711,86.711,0,0,1-15.566-10.721,47.491,47.491,0,0,1-7.323-8.354c-2.242-3.147-4.344-6.585-6.753-9.969A94.214,94.214,0,0,0,334.818,182a82.272,82.272,0,0,0-8.187-6.126,40.86,40.86,0,0,0-7.978-3.968,31.145,31.145,0,0,0-12.7-1.977,21.542,21.542,0,0,0-3.467.487,4.455,4.455,0,0,0-1.169.348Z" transform="translate(-81.076 -147.594)" fill="#455a64"/>
      <path id="Caminho_195" data-name="Caminho 195" d="M369.9,213.9a8.508,8.508,0,0,0,1.657,1.114l4.762,2.785,1.587.9a4.874,4.874,0,0,0,2.061.682,1.977,1.977,0,0,0,1.267-.292,1.643,1.643,0,0,0,.7-1.239,4.177,4.177,0,0,0-.877-2.367l-5.569-8.827-.752.682a19.659,19.659,0,0,0,12.739,3.8,5.4,5.4,0,0,0,1.713-.292,2.3,2.3,0,0,0,1.392-1.267,2.033,2.033,0,0,0-.32-1.894,7.34,7.34,0,0,0-1.058-1.169,39.081,39.081,0,0,1-6.391-8.061,67.464,67.464,0,0,1-4.065-8.632,9.831,9.831,0,0,0,.6,2.52,34.041,34.041,0,0,0,2.785,6.488,37.2,37.2,0,0,0,6.349,8.354c.7.668,1.392,1.392,1.128,2.019s-1.295.891-2.283.891a18.867,18.867,0,0,1-6.349-.766,19.1,19.1,0,0,1-5.722-2.785l-2.228-1.643,1.49,2.325,5.569,8.757a3.564,3.564,0,0,1,.794,1.838c0,.529-.473.835-1.072.794a9.3,9.3,0,0,1-3.369-1.392l-4.9-2.506A8.661,8.661,0,0,0,369.9,213.9Z" transform="translate(-54.173 -139.771)" fill="#455a64"/>
      <path id="Caminho_196" data-name="Caminho 196" d="M333.537,244.345a6.265,6.265,0,0,0-6.474-4.762,6.5,6.5,0,0,0-5.04,3.578,8.061,8.061,0,0,0-.292,6.279l.111.446a7.142,7.142,0,0,0,8.033,1.713,6.669,6.669,0,0,0,3.662-7.254Z" transform="translate(-73.265 -120.258)" fill="#eb996e"/>
      <path id="Caminho_197" data-name="Caminho 197" d="M319.16,250.932c0-.724,4.859-.5,8.521-4.483s3.369-9.189,4.052-9.189c.306,0,.891,1.2.835,3.4a12.085,12.085,0,0,1-3.1,7.671,10.568,10.568,0,0,1-7.128,3.453C320.33,251.865,319.119,251.266,319.16,250.932Z" transform="translate(-74.078 -121.165)" fill="#263238"/>
      <path id="Caminho_198" data-name="Caminho 198" d="M472.787,459a1.244,1.244,0,0,1-.32,0l-.975.1-3.717.306c-3.23.265-7.908.571-13.7.919-11.57.682-27.567,1.392-45.249,1.685s-33.721.125-45.305-.181c-5.792-.139-10.484-.306-13.714-.446l-3.731-.195h3.731l13.728.237c11.584.167,27.6.251,45.277,0s33.665-.919,45.235-1.476l13.714-.682,3.731-.167h.961Z" transform="translate(-64.027 -34.18)" fill="#fff"/>
    </g>
  </g>
</svg>
